<?xml version="1.0" standalone="no"?>
<!DOCTYPE svg PUBLIC "-//W3C//DTD SVG 20010904//EN"
 "http://www.w3.org/TR/2001/REC-SVG-20010904/DTD/svg10.dtd">
<svg version="1.0" xmlns="http://www.w3.org/2000/svg"
 width="900.000000pt" height="900.000000pt" viewBox="0 0 900.000000 900.000000"
 preserveAspectRatio="xMidYMid meet">
<metadata>
Created by potrace 1.14, written by Peter Selinger 2001-2017
</metadata>
<g transform="translate(0.000000,900.000000) scale(0.100000,-0.100000)"
fill="#000000" stroke="none">
<path d="M1765 8062 c-95 -51 -123 -70 -186 -121 -111 -91 -215 -232 -277
-375 -33 -77 -81 -227 -87 -276 -2 -14 -7 -41 -10 -60 -15 -78 -27 -236 -27
-345 0 -90 16 -344 26 -395 2 -14 7 -45 10 -70 3 -25 13 -83 21 -130 9 -47 19
-101 22 -120 l6 -34 -47 39 c-141 115 -296 322 -396 527 -45 92 -118 292 -157
428 -6 22 -35 -19 -83 -120 -23 -47 -45 -92 -49 -100 -19 -35 -62 -202 -75
-290 -13 -90 -15 -344 -3 -415 17 -93 22 -117 42 -195 22 -89 97 -274 141
-352 20 -34 45 -78 56 -97 40 -70 133 -187 219 -275 49 -50 89 -92 89 -94 0
-1 -8 2 -17 8 -10 5 -61 28 -113 51 -81 34 -239 111 -330 160 -72 39 -212 142
-281 207 -120 113 -181 218 -195 334 -8 63 -14 74 -15 27 -1 -19 -2 -47 -4
-64 -11 -100 -4 -381 12 -425 2 -8 7 -31 9 -50 6 -46 49 -202 73 -266 89 -230
202 -404 386 -589 197 -199 413 -345 695 -468 l85 -38 -60 6 c-33 3 -69 8 -80
10 -23 5 -71 14 -100 19 -238 39 -617 217 -791 371 -7 6 -30 25 -53 44 -23 18
-66 58 -96 87 -55 55 -67 63 -60 42 2 -7 6 -33 9 -58 15 -123 53 -256 112
-387 29 -65 122 -215 166 -267 50 -61 167 -172 228 -219 30 -23 57 -45 58 -49
2 -5 7 -8 12 -8 4 0 34 -17 66 -39 120 -80 326 -176 509 -239 117 -41 319 -97
425 -118 14 -3 63 -13 110 -23 47 -10 124 -25 173 -32 48 -7 87 -17 87 -21 0
-4 -6 -8 -12 -9 -7 0 -42 -3 -78 -7 -93 -8 -451 -8 -545 1 -75 7 -104 11 -165
22 -14 3 -43 8 -65 11 -22 3 -43 8 -47 11 -17 10 -6 -9 38 -64 218 -272 590
-446 1274 -598 8 -2 38 -8 65 -14 539 -119 813 -222 966 -363 149 -138 188
-323 119 -570 -10 -37 -22 -73 -26 -79 -5 -8 -3 -9 7 -4 153 90 352 314 445
502 22 43 42 80 45 83 3 3 9 12 13 20 14 34 -7 -51 -36 -144 -118 -373 -410
-689 -785 -847 -18 -8 -33 -17 -33 -21 0 -22 153 -93 280 -129 77 -23 239 -58
295 -66 22 -2 51 -7 65 -9 120 -19 433 -24 535 -10 142 21 186 32 260 68 117
57 166 136 199 318 3 14 10 50 16 80 6 30 13 66 16 79 24 120 121 254 233 322
73 44 252 98 376 113 28 4 61 8 75 11 30 5 190 19 355 30 93 6 193 15 230 20
17 2 59 7 95 10 36 3 72 8 80 10 8 2 35 7 60 10 25 4 65 11 90 17 25 5 54 12
65 14 11 2 52 13 90 24 39 11 77 22 85 24 51 13 314 135 307 142 -1 2 -61 4
-132 5 -72 1 -166 8 -210 15 -97 16 -226 45 -240 54 -5 4 -31 13 -57 20 -60
16 -63 30 -5 21 58 -8 498 -7 572 2 54 7 180 27 260 42 184 35 448 137 568
219 21 14 40 26 43 26 3 0 26 16 52 37 26 20 38 33 27 28 -38 -14 -251 -55
-325 -62 -41 -4 -127 -7 -190 -7 -155 0 -226 7 -389 39 -45 8 -31 12 52 12
153 0 295 15 452 49 154 34 147 32 238 60 465 147 822 407 976 712 17 34 30
62 27 62 -2 0 -29 -11 -61 -25 -51 -23 -190 -70 -285 -96 -49 -13 -193 -39
-197 -35 -2 1 16 9 39 16 120 35 277 137 390 250 184 186 289 402 343 705 3
17 8 62 10 100 l6 70 -154 -155 c-344 -346 -596 -556 -903 -750 -124 -79 -454
-249 -494 -254 -3 -1 -24 -9 -45 -18 -82 -34 -174 -68 -187 -68 -8 0 -19 -5
-26 -12 -7 -7 -12 -9 -12 -5 0 3 -12 2 -27 -4 -16 -6 -35 -12 -43 -14 -8 -2
-47 -13 -85 -24 -39 -11 -81 -22 -95 -25 -24 -5 -43 -9 -90 -21 -54 -14 -298
-63 -344 -70 -21 -3 -48 -7 -60 -10 -12 -3 -32 -7 -46 -9 -14 -2 -41 -7 -60
-10 -48 -8 -76 -13 -167 -26 -43 -6 -89 -13 -103 -16 -14 -2 -43 -7 -65 -9
-22 -3 -51 -8 -65 -10 -14 -2 -47 -7 -75 -10 -27 -4 -104 -15 -170 -25 -232
-36 -286 -43 -309 -42 -37 2 -6 -10 36 -13 114 -10 258 -80 348 -169 45 -45
97 -129 106 -169 2 -10 6 -28 10 -39 6 -19 3 -20 -22 -14 -55 12 -164 19 -164
10 0 -5 16 -10 35 -12 72 -5 155 -65 190 -139 11 -21 21 -67 23 -103 l4 -65
-50 51 c-102 105 -183 143 -318 151 -250 15 -454 -88 -709 -357 -162 -172
-264 -269 -320 -306 -26 -17 -26 -16 9 38 182 285 253 603 200 903 -9 52 -65
218 -91 270 -85 169 -186 290 -393 475 -324 288 -743 718 -1005 1030 -44 52
-84 100 -90 107 -5 6 -18 22 -28 35 -10 13 -29 37 -43 53 -67 79 -269 355
-359 489 -194 288 -369 596 -480 846 -21 47 -48 108 -60 135 -91 203 -233 648
-260 815 -3 19 -8 42 -10 50 -2 8 -7 31 -10 50 -3 19 -8 46 -10 60 -7 31 -14
83 -20 132 -3 20 -7 52 -11 70 -3 18 -7 56 -9 83 -2 28 -7 73 -10 100 -7 55
-8 472 -2 548 2 26 4 47 3 47 0 0 -32 -18 -71 -38z"/>
</g>
</svg>
